<?xml version="1.0" encoding="UTF-8" standalone="no"?>
<!-- Created with Inkscape (http://www.inkscape.org/) -->

<svg
   width="512"
   height="512"
   viewBox="0 0 512 512"
   version="1.1"
   id="svg1"
   xml:space="preserve"
   xmlns:xlink="http://www.w3.org/1999/xlink"
   xmlns="http://www.w3.org/2000/svg"
   xmlns:svg="http://www.w3.org/2000/svg"><defs
     id="defs1"><linearGradient
       id="linearGradient8"><stop
         style="stop-color:#3c79ba;stop-opacity:1;"
         offset="0"
         id="stop8" /><stop
         style="stop-color:#2c5f8d;stop-opacity:1;"
         offset="1"
         id="stop9" /></linearGradient><linearGradient
       xlink:href="#linearGradient8"
       id="linearGradient9"
       x1="-0.5"
       y1="256"
       x2="512.5"
       y2="256"
       gradientUnits="userSpaceOnUse" /></defs><circle
     style="fill:#4384cd;fill-opacity:1;stroke:#ffffff;stroke-width:0.499391"
     id="path7"
     cx="256"
     cy="256"
     r="204.75031" /><rect
     style="fill:url(#linearGradient9);fill-opacity:1;stroke:#fffafa;stroke-opacity:1"
     id="rect7"
     width="512"
     height="512"
     x="0"
     y="0" /><g
     id="layer1"><g
       style="fill:none;stroke:#fffafa;stroke-width:2;stroke-linecap:round;stroke-linejoin:round;stroke-opacity:1"
       id="g1"
       transform="matrix(16.03553,0,0,16.03553,63.585346,63.57364)"><path
         d="M 6.5,12 C 7.44,8.54 11.44,6 15,6 c 3.56,0 6.06,2.54 7,6 -0.94,3.47 -3.44,6 -7,6 -3.56,0 -7.56,-2.53 -8.5,-6 z"
         id="path1"
         style="stroke:#fffafa;stroke-opacity:1" /><path
         d="m 18,12 v 0.5"
         id="path2"
         style="stroke:#fffafa;stroke-opacity:1" /><path
         d="M 16,17.93 A 9.77,9.77 0 0 1 16,6.07"
         id="path3"
         style="stroke:#fffafa;stroke-opacity:1" /><path
         d="M 7,10.67 C 7,8 5.58,5.97 2.73,5.5 1.73,7 1.73,10.5 2.96,12 1.72,13.5 1.72,17 2.73,18.5 5.58,18.03 7,16 7,13.33"
         id="path4"
         style="stroke:#fffafa;stroke-opacity:1" /><path
         d="M 10.46,7.26 C 10.2,5.88 9.17,4.24 8,3 h 5.8 a 2,2 0 0 1 1.98,1.67 l 0.23,1.4"
         id="path5"
         style="stroke:#fffafa;stroke-opacity:1" /><path
         d="m 16.01,17.93 -0.23,1.4 A 2,2 0 0 1 13.8,21 H 9.5 a 5.96,5.96 0 0 0 1.49,-3.98"
         id="path6"
         style="stroke:#fffafa;stroke-opacity:1" /></g></g></svg>
